Coordinates
version=1
nRows=17
nColumns=40
inDegrees=yes

Units are S.I. units (second, meters, Newtons, ...)
Angles are in degrees.

endheader
time	pelvis_tilt	pelvis_list	pelvis_rotation	pelvis_tx	pelvis_ty	pelvis_tz	hip_flexion_r	hip_adduction_r	hip_rotation_r	knee_angle_r	knee_angle_r_beta	ankle_angle_r	subtalar_angle_r	mtp_angle_r	hip_flexion_l	hip_adduction_l	hip_rotation_l	knee_angle_l	knee_angle_l_beta	ankle_angle_l	subtalar_angle_l	mtp_angle_l	lumbar_extension	lumbar_bending	lumbar_rotation	arm_flex_r	arm_add_r	arm_rot_r	elbow_flex_r	pro_sup_r	wrist_flex_r	wrist_dev_r	arm_flex_l	arm_add_l	arm_rot_l	elbow_flex_l	pro_sup_l	wrist_flex_l	wrist_dev_l
     36.90500000	     -7.09063224	     -3.72433613	    -13.57275236	      0.99547526	      0.93209323	      0.44420998	     22.48206317	     -0.91223716	     -2.69150952	     17.56475840	     17.56475840	      6.48355746	      8.84050290	      4.78535378	      9.25586070	     -5.59476100	    -17.91863440	     16.90027849	     16.90027849	     14.97318707	    -15.39179351	      3.18682068	     -8.75311145	      6.56486306	      1.64701255	    -22.46688244	    -11.30125279	     -8.01875744	     29.01090612	     46.58174685	      0.00000000	      0.00000000	     39.60049926	    -21.80215063	    -11.78498271	     86.79177577	     48.08502176	      0.00000000	      0.00000000
     36.92621429	     -7.26982779	     -3.30030978	    -13.56102020	      0.99590397	      0.93049108	      0.44790330	     22.37796126	     -0.90340333	     -2.61904952	     16.65627281	     16.65627281	      6.41873589	      9.19241727	      5.04061874	      9.21098490	     -5.38386966	    -17.95984422	     17.01216615	     17.01216615	     15.24740311	    -15.37390816	      2.95790465	     -8.43046895	      6.08757309	      1.63834622	    -22.20781667	    -11.24543438	     -7.95562667	     29.10129221	     46.57374668	      0.00000000	      0.00000000	     40.40408419	    -21.80225369	    -11.91835844	     87.25478692	     48.10836258	      0.00000000	      0.00000000
     36.94742857	     -7.36397006	     -3.10849975	    -13.47752963	      0.99678856	      0.92930119	      0.45186808	     22.26797914	     -0.75113867	     -2.79817421	     16.48301817	     16.48301817	      6.53986922	      9.13622291	      5.03949764	      8.96002773	     -5.39453154	    -17.95927288	     17.03601057	     17.03601057	     15.46275124	    -15.41549107	      2.86144437	     -8.17083115	      5.94655166	      1.73180177	    -22.08197452	    -11.28326025	     -7.94582333	     29.14131983	     46.57214909	      0.00000000	      0.00000000	     40.55376839	    -21.77960956	    -11.95716387	     87.38371335	     48.11444739	      0.00000000	      0.00000000
     36.96864286	     -7.39220527	     -3.03921627	    -13.21983883	      0.99780239	      0.92874605	      0.45579940	     21.59259969	     -0.52053098	     -2.86914545	     15.73361594	     15.73361594	      6.51088038	      8.93679804	      4.97185225	      8.56005579	     -5.52023850	    -17.93874776	     16.93913778	     16.93913778	     15.64269819	    -14.96116272	      2.58227796	     -8.21110054	      5.79336696	      1.81687485	    -21.71172183	    -11.37222240	     -7.76999786	     29.17225088	     46.55752627	      0.00000000	      0.00000000	     41.21333754	    -21.06873165	    -12.25626329	     88.49920786	     48.16155685	      0.00000000	      0.00000000
     36.98985714	     -7.52203874	     -2.96029398	    -12.93382003	      0.99906799	      0.92805939	      0.45991378	     21.36254940	     -0.35032651	     -2.98867734	     15.88935069	     15.88935069	      6.93372168	      8.54565349	      4.68614959	      8.24935108	     -5.64578427	    -17.78412649	     16.81402742	     16.81402742	     15.82819061	    -14.77089005	      2.48400088	     -8.01448686	      5.77698600	      1.82032561	    -21.52434326	    -11.62191885	     -7.75482261	     29.21101216	     46.55584785	      0.00000000	      0.00000000	     41.18964554	    -20.80330219	    -12.29467384	     88.70685265	     48.16863734	      0.00000000	      0.00000000
     37.01107143	     -7.53926288	     -2.86945877	    -12.65371772	      1.00042141	      0.92760312	      0.46438676	     21.05750623	     -0.04683853	     -2.18821868	     16.12820087	     16.12820087	      6.02386217	      6.26095013	      0.69334887	      7.68530130	     -5.79307137	    -18.04393072	     16.47200430	     16.47200430	     15.85957527	    -13.88923205	      1.80795286	     -7.97077062	      5.63467494	      1.15750001	    -20.73442526	    -12.25974346	     -6.07225657	     29.06729647	     46.41229687	      0.00000000	      0.00000000	     40.30116093	    -20.63928969	    -14.09945678	     90.70150564	     48.35099991	      0.00000000	      0.00000000
     37.03228571	     -7.57483412	     -2.82933147	    -12.25918153	      1.00180140	      0.92737050	      0.46878071	     20.89824942	      0.12482215	     -2.06704494	     16.81604083	     16.81604083	      6.54223223	      5.15795105	      0.22531789	      7.15119965	     -5.92487868	    -17.87800945	     16.09195745	     16.09195745	     15.89797711	    -13.52239695	      1.87255242	     -7.87998355	      5.58260919	      1.12578488	    -20.60063154	    -12.61059934	     -5.91595368	     29.10077462	     46.39716997	      0.00000000	      0.00000000	     40.19642134	    -20.31478477	    -13.97344152	     90.75790231	     48.34796965	      0.00000000	      0.00000000
     37.05350000	     -7.65280442	     -2.86676220	    -11.81157075	      1.00312580	      0.92725020	      0.47331940	     20.71293101	      0.37853624	     -1.99522246	     17.39263928	     17.39263928	      6.98329654	      4.06803314	     -0.15827224	      6.65446494	     -6.17025285	    -17.67380464	     15.70715589	     15.70715589	     15.92912977	    -13.05268192	      1.91839582	     -7.76643594	      5.57298676	      1.05227443	    -20.38849149	    -12.96643692	     -5.79995124	     29.19399694	     46.38398803	      0.00000000	      0.00000000	     39.94189662	    -19.99101272	    -13.89044641	     90.73461122	     48.34436032	      0.00000000	      0.00000000
     37.07471429	     -7.72322053	     -2.89290312	    -11.28573580	      1.00433392	      0.92724164	      0.47786761	     20.48689648	      0.64518156	     -1.74460144	     17.86176141	     17.86176141	      7.39099688	      2.64546162	     -0.52892892	      6.16332204	     -6.43067812	    -17.55445498	     15.28410195	     15.28410195	     15.91826276	    -12.35322119	      1.94848071	     -7.71817905	      5.57877716	      0.88558560	    -20.13562360	    -13.34319933	     -5.54530500	     29.35167745	     46.35614778	      0.00000000	      0.00000000	     39.60699177	    -19.65797878	    -13.85795777	     90.61761181	     48.34441007	      0.00000000	      0.00000000
     37.09592857	     -7.83530398	     -3.02378567	    -10.69422536	      1.00540401	      0.92723243	      0.48240785	     20.22131405	      0.92057596	     -2.07382147	     18.16871115	     18.16871115	      7.83128516	      2.12777073	     -0.72435076	      5.81768124	     -6.82942430	    -17.20029016	     15.04013908	     15.04013908	     15.87336480	    -11.93808334	      1.98310175	     -7.62480041	      5.66798294	      0.73653228	    -19.87500260	    -13.65642347	     -5.51965341	     29.44920184	     46.35184994	      0.00000000	      0.00000000	     39.19968096	    -19.23315664	    -13.68501272	     90.46350357	     48.32904476	      0.00000000	      0.00000000
     37.11714286	     -7.86253295	     -3.10275916	    -10.14460226	      1.00643788	      0.92741988	      0.48713724	     19.90163306	      1.23695833	     -1.96491249	     18.45660369	     18.45660369	      8.22624250	      1.01711455	     -0.77853856	      5.24706839	     -7.18109520	    -17.22858729	     14.53208329	     14.53208329	     15.81674251	    -10.92483087	      1.97704163	     -7.62966406	      5.66906835	      0.51355320	    -19.53535642	    -14.01099687	     -5.22240513	     29.64274418	     46.32094423	      0.00000000	      0.00000000	     38.66570732	    -18.96635891	    -13.67245020	     89.84253533	     48.31841008	      0.00000000	      0.00000000
     37.13835714	     -7.97317256	     -3.22543302	     -9.49930246	      1.00719181	      0.92742873	      0.49170895	     19.63960605	      1.50936406	     -2.36987757	     18.62814359	     18.62814359	      8.62525331	      0.63399672	     -0.89070139	      4.99428272	     -7.61412682	    -16.85000317	     14.36774531	     14.36774531	     15.73077504	    -10.48182624	      1.99851714	     -7.59091764	      5.69491512	      0.36743922	    -19.18076987	    -14.22774516	     -5.18227098	     29.77407050	     46.31510403	      0.00000000	      0.00000000	     38.07216558	    -18.43986239	    -13.45017182	     89.55063083	     48.29563763	      0.00000000	      0.00000000
     37.15957143	     -8.04927367	     -3.35434189	     -8.88053016	      1.00789013	      0.92752307	      0.49630454	     19.32967011	      1.80821107	     -2.74387048	     18.72433813	     18.72433813	      8.98063695	      0.22349797	     -0.92010805	      4.67137485	     -8.06417422	    -16.62921094	     14.12688213	     14.12688213	     15.60557500	     -9.83852454	      2.02425654	     -7.54038261	      5.73664667	      0.21181653	    -18.75905828	    -14.45925873	     -5.10048486	     29.93806443	     46.30510543	      0.00000000	      0.00000000	     37.26839019	    -17.98548627	    -13.26640216	     88.92503511	     48.26804600	      0.00000000	      0.00000000
     37.18078571	     -8.06851237	     -3.56317852	     -8.26829878	      1.00858211	      0.92774449	      0.50109538	     18.85681947	      2.25413899	     -2.93138451	     18.64194362	     18.64194362	      9.46273736	     -0.35607872	     -0.20155085	      4.37999552	     -8.79170074	    -17.23178883	     14.17166983	     14.17166983	     15.91425824	     -7.76299552	      1.95737647	     -7.50575867	      5.86110269	      0.11561606	    -18.31785587	    -14.87400734	     -3.64876308	     30.16202732	     46.18390156	      0.00000000	      0.00000000	     36.76327375	    -17.43966689	    -13.13099377	     86.66767045	     48.22620053	      0.00000000	      0.00000000
     37.20200000	     -8.09605164	     -3.66876860	     -7.61162791	      1.00912867	      0.92785992	      0.50559151	     18.45130438	      2.52065835	     -3.40312502	     18.58338237	     18.58338237	      9.80846035	     -0.55463185	     -0.13439548	      4.14282611	     -9.25795185	    -17.00541531	     14.11067750	     14.11067750	     15.84375593	     -7.07049455	      2.05815788	     -7.48689852	      5.86912276	     -0.23083512	    -17.61500307	    -15.09287365	     -3.41245179	     30.50861539	     46.15606676	      0.00000000	      0.00000000	     35.59330990	    -17.14851111	    -12.90437936	     85.41404297	     48.18374762	      0.00000000	      0.00000000
     37.22321429	     -8.07785394	     -3.68713546	     -6.96485755	      1.00955843	      0.92787851	      0.50994983	     18.10750917	      2.68940406	     -3.85946724	     18.68131815	     18.68131815	     10.16899483	     -0.85034496	     -0.21408192	      3.96898170	     -9.62161289	    -16.62785739	     14.19495089	     14.19495089	     15.72262242	     -6.69194629	      2.08189143	     -7.55537622	      5.74456118	     -0.23979910	    -16.94756884	    -15.13277856	     -3.36944882	     30.75912777	     46.14786458	      0.00000000	      0.00000000	     34.30605831	    -16.40704446	    -12.56977738	     84.73351680	     48.14149425	      0.00000000	      0.00000000
     37.24442857	     -8.01907161	     -3.73404111	     -6.31209708	      1.01006811	      0.92792836	      0.51432162	     17.68658671	      2.89778699	     -4.31043000	     18.73126525	     18.73126525	     10.52181081	     -1.11076414	     -0.27277644	      3.82456147	    -10.05519412	    -16.29556257	     14.42552185	     14.42552185	     15.63484318	     -6.26134007	      2.07519447	     -7.59250601	      5.67933528	     -0.35975546	    -16.11923109	    -15.20317869	     -3.33180689	     31.06763253	     46.13894647	      0.00000000	      0.00000000	     32.66892615	    -15.72042964	    -12.20629117	     83.57321367	     48.08640758	      0.00000000	      0.00000000
